<mxfile host="app.diagrams.net" agent="Mozilla/5.0 (Macintosh; Intel Mac OS X 10_15_7) AppleWebKit/605.1.15 (KHTML, like Gecko) Version/18.6 Safari/605.1.15" version="28.2.3">
  <diagram name="Page-1" id="10a0gsZFTdHuE9E2Uif8">
    <mxGraphModel dx="751" dy="719" grid="1" gridSize="10" guides="1" tooltips="1" connect="1" arrows="1" fold="1" page="1" pageScale="1" pageWidth="850" pageHeight="1100" math="0" shadow="0">
      <root>
        <mxCell id="0" />
        <mxCell id="1" parent="0" />
        <mxCell id="omxa64vRlQmA_DcL5C-O-3" value="" style="edgeStyle=orthogonalEdgeStyle;rounded=0;orthogonalLoop=1;jettySize=auto;html=1;" edge="1" parent="1" source="bKlo0rM_d9EV1pitRLi6-1" target="bKlo0rM_d9EV1pitRLi6-2">
          <mxGeometry relative="1" as="geometry" />
        </mxCell>
        <mxCell id="bKlo0rM_d9EV1pitRLi6-1" value="Start" style="ellipse;whiteSpace=wrap;html=1;aspect=fixed;" parent="1" vertex="1">
          <mxGeometry x="380" y="40" width="70" height="70" as="geometry" />
        </mxCell>
        <mxCell id="omxa64vRlQmA_DcL5C-O-2" value="" style="edgeStyle=orthogonalEdgeStyle;rounded=0;orthogonalLoop=1;jettySize=auto;html=1;" edge="1" parent="1" source="bKlo0rM_d9EV1pitRLi6-2" target="omxa64vRlQmA_DcL5C-O-1">
          <mxGeometry relative="1" as="geometry" />
        </mxCell>
        <mxCell id="bKlo0rM_d9EV1pitRLi6-2" value="Login" style="rounded=1;whiteSpace=wrap;html=1;" parent="1" vertex="1">
          <mxGeometry x="355" y="130" width="120" height="60" as="geometry" />
        </mxCell>
        <mxCell id="omxa64vRlQmA_DcL5C-O-20" value="" style="edgeStyle=orthogonalEdgeStyle;rounded=0;orthogonalLoop=1;jettySize=auto;html=1;" edge="1" parent="1" source="omxa64vRlQmA_DcL5C-O-1" target="omxa64vRlQmA_DcL5C-O-19">
          <mxGeometry relative="1" as="geometry" />
        </mxCell>
        <mxCell id="omxa64vRlQmA_DcL5C-O-1" value="Navigate to Socials" style="rounded=1;whiteSpace=wrap;html=1;" vertex="1" parent="1">
          <mxGeometry x="355" y="210" width="120" height="60" as="geometry" />
        </mxCell>
        <mxCell id="omxa64vRlQmA_DcL5C-O-22" value="" style="edgeStyle=orthogonalEdgeStyle;rounded=0;orthogonalLoop=1;jettySize=auto;html=1;" edge="1" parent="1" source="omxa64vRlQmA_DcL5C-O-5" target="omxa64vRlQmA_DcL5C-O-12">
          <mxGeometry relative="1" as="geometry" />
        </mxCell>
        <mxCell id="omxa64vRlQmA_DcL5C-O-26" value="" style="edgeStyle=orthogonalEdgeStyle;rounded=0;orthogonalLoop=1;jettySize=auto;html=1;" edge="1" parent="1" source="omxa64vRlQmA_DcL5C-O-5" target="omxa64vRlQmA_DcL5C-O-23">
          <mxGeometry relative="1" as="geometry" />
        </mxCell>
        <mxCell id="omxa64vRlQmA_DcL5C-O-5" value="Results Found?" style="rhombus;whiteSpace=wrap;html=1;" vertex="1" parent="1">
          <mxGeometry x="377.5" y="370" width="75" height="80" as="geometry" />
        </mxCell>
        <mxCell id="omxa64vRlQmA_DcL5C-O-7" value="Send Friend Request&amp;nbsp;" style="rounded=1;whiteSpace=wrap;html=1;" vertex="1" parent="1">
          <mxGeometry x="320" y="500" width="120" height="60" as="geometry" />
        </mxCell>
        <mxCell id="omxa64vRlQmA_DcL5C-O-34" value="" style="edgeStyle=orthogonalEdgeStyle;rounded=0;orthogonalLoop=1;jettySize=auto;html=1;" edge="1" parent="1" source="omxa64vRlQmA_DcL5C-O-9" target="omxa64vRlQmA_DcL5C-O-33">
          <mxGeometry relative="1" as="geometry" />
        </mxCell>
        <mxCell id="omxa64vRlQmA_DcL5C-O-9" value="Remove Friend Button" style="rounded=1;whiteSpace=wrap;html=1;" vertex="1" parent="1">
          <mxGeometry x="480" y="550" width="120" height="60" as="geometry" />
        </mxCell>
        <mxCell id="omxa64vRlQmA_DcL5C-O-11" value="&lt;b&gt;&lt;font style=&quot;font-size: 18px;&quot; face=&quot;Verdana&quot;&gt;Adding/Removing Friends&lt;/font&gt;&lt;/b&gt;" style="text;html=1;align=center;verticalAlign=middle;resizable=0;points=[];autosize=1;strokeColor=none;fillColor=none;" vertex="1" parent="1">
          <mxGeometry x="60" y="40" width="290" height="30" as="geometry" />
        </mxCell>
        <mxCell id="omxa64vRlQmA_DcL5C-O-12" value="&quot;No results found&quot;" style="rounded=1;whiteSpace=wrap;html=1;" vertex="1" parent="1">
          <mxGeometry x="230" y="380" width="120" height="60" as="geometry" />
        </mxCell>
        <mxCell id="omxa64vRlQmA_DcL5C-O-16" value="end" style="ellipse;whiteSpace=wrap;html=1;aspect=fixed;" vertex="1" parent="1">
          <mxGeometry x="360" y="630" width="70" height="70" as="geometry" />
        </mxCell>
        <mxCell id="omxa64vRlQmA_DcL5C-O-21" value="" style="edgeStyle=orthogonalEdgeStyle;rounded=0;orthogonalLoop=1;jettySize=auto;html=1;" edge="1" parent="1" source="omxa64vRlQmA_DcL5C-O-19" target="omxa64vRlQmA_DcL5C-O-5">
          <mxGeometry relative="1" as="geometry" />
        </mxCell>
        <mxCell id="omxa64vRlQmA_DcL5C-O-19" value="Search for Spy" style="rounded=1;whiteSpace=wrap;html=1;" vertex="1" parent="1">
          <mxGeometry x="355" y="290" width="120" height="60" as="geometry" />
        </mxCell>
        <mxCell id="omxa64vRlQmA_DcL5C-O-28" value="" style="edgeStyle=orthogonalEdgeStyle;rounded=0;orthogonalLoop=1;jettySize=auto;html=1;" edge="1" parent="1" source="omxa64vRlQmA_DcL5C-O-23" target="omxa64vRlQmA_DcL5C-O-27">
          <mxGeometry relative="1" as="geometry" />
        </mxCell>
        <mxCell id="omxa64vRlQmA_DcL5C-O-23" value="Contact Found" style="rounded=1;whiteSpace=wrap;html=1;" vertex="1" parent="1">
          <mxGeometry x="480" y="380" width="120" height="60" as="geometry" />
        </mxCell>
        <mxCell id="omxa64vRlQmA_DcL5C-O-29" value="" style="edgeStyle=orthogonalEdgeStyle;rounded=0;orthogonalLoop=1;jettySize=auto;html=1;" edge="1" parent="1" source="omxa64vRlQmA_DcL5C-O-27" target="omxa64vRlQmA_DcL5C-O-7">
          <mxGeometry relative="1" as="geometry" />
        </mxCell>
        <mxCell id="omxa64vRlQmA_DcL5C-O-30" value="" style="edgeStyle=orthogonalEdgeStyle;rounded=0;orthogonalLoop=1;jettySize=auto;html=1;" edge="1" parent="1" source="omxa64vRlQmA_DcL5C-O-27" target="omxa64vRlQmA_DcL5C-O-9">
          <mxGeometry relative="1" as="geometry" />
        </mxCell>
        <mxCell id="omxa64vRlQmA_DcL5C-O-27" value="Click on profile" style="whiteSpace=wrap;html=1;rounded=1;" vertex="1" parent="1">
          <mxGeometry x="480" y="460" width="120" height="60" as="geometry" />
        </mxCell>
        <mxCell id="omxa64vRlQmA_DcL5C-O-35" value="" style="edgeStyle=orthogonalEdgeStyle;rounded=0;orthogonalLoop=1;jettySize=auto;html=1;" edge="1" parent="1" source="omxa64vRlQmA_DcL5C-O-33" target="omxa64vRlQmA_DcL5C-O-16">
          <mxGeometry relative="1" as="geometry" />
        </mxCell>
        <mxCell id="omxa64vRlQmA_DcL5C-O-33" value="Update Contact List" style="whiteSpace=wrap;html=1;rounded=1;" vertex="1" parent="1">
          <mxGeometry x="480" y="635" width="120" height="60" as="geometry" />
        </mxCell>
      </root>
    </mxGraphModel>
  </diagram>
</mxfile>
